<svg width="29" height="27" viewBox="0 0 29 27" fill="none" xmlns="http://www.w3.org/2000/svg">
<path d="M17.3964 21.4896C17.7824 21.4896 18.1525 21.3486 18.4254 21.0978C18.6983 20.8469 18.8516 20.5067 18.8516 20.1519V17.4767C18.8516 17.122 18.6983 16.7817 18.4254 16.5309C18.1525 16.28 17.7824 16.1391 17.3964 16.1391C17.0105 16.1391 16.6403 16.28 16.3674 16.5309C16.0945 16.7817 15.9412 17.122 15.9412 17.4767V20.1519C15.9412 20.5067 16.0945 20.8469 16.3674 21.0978C16.6403 21.3486 17.0105 21.4896 17.3964 21.4896ZM11.5755 21.4896C11.9614 21.4896 12.3316 21.3486 12.6045 21.0978C12.8774 20.8469 13.0307 20.5067 13.0307 20.1519V17.4767C13.0307 17.122 12.8774 16.7817 12.6045 16.5309C12.3316 16.28 11.9614 16.1391 11.5755 16.1391C11.1895 16.1391 10.8194 16.28 10.5465 16.5309C10.2736 16.7817 10.1202 17.122 10.1202 17.4767V20.1519C10.1202 20.5067 10.2736 20.8469 10.5465 21.0978C10.8194 21.3486 11.1895 21.4896 11.5755 21.4896ZM24.6726 5.43818H22.6644L20.1468 0.823407C20.0699 0.653602 19.9557 0.500205 19.8113 0.372803C19.667 0.2454 19.4956 0.146731 19.3079 0.0829602C19.1202 0.0191897 18.9202 -0.00831129 18.7204 0.00217589C18.5206 0.0126631 18.3253 0.0609131 18.1468 0.143911C17.9682 0.226908 17.8101 0.342869 17.6825 0.484547C17.5549 0.626225 17.4604 0.790575 17.405 0.967327C17.3496 1.14408 17.3345 1.32943 17.3605 1.51181C17.3866 1.69418 17.4533 1.86965 17.5565 2.02726L19.4046 5.43818H9.56726L11.4154 2.02726C11.5567 1.71547 11.5644 1.36611 11.437 1.04931C11.3096 0.732518 11.0565 0.471744 10.7286 0.319348C10.4007 0.166952 10.0222 0.134216 9.66914 0.227713C9.31606 0.321209 9.01453 0.534016 8.82509 0.823407L6.30754 5.43818H4.29931C3.27074 5.45256 2.28073 5.80033 1.50388 6.42017C0.727041 7.04 0.213274 7.89207 0.0531932 8.8261C-0.106887 9.76013 0.0970038 10.7161 0.628906 11.5255C1.16081 12.3348 1.98655 12.9455 2.9605 13.2499L4.03737 23.2285C4.14597 24.2217 4.65344 25.1421 5.46069 25.81C6.26795 26.4778 7.31703 26.845 8.40307 26.84H20.5979C21.684 26.845 22.733 26.4778 23.5403 25.81C24.3476 25.1421 24.855 24.2217 24.9636 23.2285L26.0405 13.2499C27.0166 12.9446 27.8436 12.3317 28.3751 11.5196C28.9067 10.7076 29.1084 9.74882 28.9445 8.81318C28.7807 7.87753 28.2619 7.02538 27.48 6.40765C26.6981 5.78992 25.7036 5.44649 24.6726 5.43818ZM22.0386 22.9609C22.0024 23.292 21.8332 23.5988 21.5642 23.8214C21.2951 24.044 20.9454 24.1665 20.5834 24.1648H8.38852C8.0265 24.1665 7.67681 24.044 7.40773 23.8214C7.13864 23.5988 6.96948 23.292 6.93329 22.9609L5.90007 13.4639H23.0718L22.0386 22.9609ZM24.6726 10.7886H4.29931C3.91336 10.7886 3.54322 10.6477 3.27031 10.3969C2.9974 10.146 2.84408 9.80578 2.84408 9.45103C2.84408 9.09627 2.9974 8.75604 3.27031 8.50519C3.54322 8.25434 3.91336 8.11341 4.29931 8.11341H24.6726C25.0585 8.11341 25.4287 8.25434 25.7016 8.50519C25.9745 8.75604 26.1278 9.09627 26.1278 9.45103C26.1278 9.80578 25.9745 10.146 25.7016 10.3969C25.4287 10.6477 25.0585 10.7886 24.6726 10.7886Z" fill="black"/>
</svg>
