<svg width="34" height="26" viewBox="0 0 34 26" fill="none" xmlns="http://www.w3.org/2000/svg">
<path d="M23.3128 13.7471C24.9877 12.7575 26.2102 11.4005 26.8103 9.8649C27.4104 8.32928 27.3581 6.69138 26.6609 5.17908C25.9636 3.66679 24.656 2.35529 22.92 1.42705C21.184 0.498817 19.1058 0 16.9747 0C14.8435 0 12.7654 0.498817 11.0293 1.42705C9.29329 2.35529 7.98568 3.66679 7.28843 5.17908C6.59118 6.69138 6.53896 8.32928 7.13903 9.8649C7.7391 11.4005 8.96162 12.7575 10.6365 13.7471C7.76655 14.6105 5.2624 16.0427 3.39103 17.8908C1.51967 19.7389 0.351237 21.9338 0.0103048 24.2413C-0.0143737 24.4098 0.00537867 24.5803 0.0684336 24.743C0.131489 24.9058 0.236611 25.0576 0.3778 25.1898C0.662944 25.4569 1.07768 25.6279 1.53078 25.6654C1.98387 25.7028 2.43821 25.6035 2.79383 25.3894C3.14946 25.1753 3.37725 24.8638 3.42709 24.5236C3.80223 22.0157 5.39463 19.6996 7.90004 18.0176C10.4055 16.3357 13.6482 15.4059 17.0088 15.4059C20.3694 15.4059 23.6122 16.3357 26.1176 18.0176C28.623 19.6996 30.2154 22.0157 30.5906 24.5236C30.637 24.8388 30.8373 25.13 31.1528 25.3408C31.4683 25.5517 31.8766 25.6673 32.299 25.6654H32.4869C32.9347 25.6267 33.344 25.4566 33.6256 25.1923C33.9072 24.928 34.0383 24.5908 33.9903 24.2542C33.6477 21.94 32.473 19.7396 30.592 17.8886C28.711 16.0376 26.1947 14.606 23.3128 13.7471ZM16.9747 12.8362C15.6231 12.8362 14.3019 12.5352 13.1781 11.9714C12.0544 11.4075 11.1785 10.606 10.6613 9.66835C10.144 8.73066 10.0087 7.69885 10.2724 6.70341C10.5361 5.70796 11.1869 4.79359 12.1426 4.07591C13.0983 3.35824 14.3159 2.86949 15.6415 2.67149C16.9671 2.47348 18.3411 2.5751 19.5898 2.96351C20.8384 3.35191 21.9057 4.00965 22.6566 4.85355C23.4075 5.69744 23.8082 6.6896 23.8082 7.70455C23.8082 9.06555 23.0883 10.3708 21.8067 11.3332C20.5252 12.2956 18.787 12.8362 16.9747 12.8362Z" fill="black"/>
</svg>
