<svg width="29" height="23" viewBox="0 0 29 23" fill="none" xmlns="http://www.w3.org/2000/svg">
<path d="M17.3964 18.415C17.7824 18.415 18.1525 18.2942 18.4254 18.0793C18.6983 17.8643 18.8516 17.5728 18.8516 17.2688V14.9763C18.8516 14.6723 18.6983 14.3807 18.4254 14.1658C18.1525 13.9508 17.7824 13.83 17.3964 13.83C17.0105 13.83 16.6403 13.9508 16.3674 14.1658C16.0945 14.3807 15.9412 14.6723 15.9412 14.9763V17.2688C15.9412 17.5728 16.0945 17.8643 16.3674 18.0793C16.6403 18.2942 17.0105 18.415 17.3964 18.415ZM11.5755 18.415C11.9614 18.415 12.3316 18.2942 12.6045 18.0793C12.8774 17.8643 13.0307 17.5728 13.0307 17.2688V14.9763C13.0307 14.6723 12.8774 14.3807 12.6045 14.1658C12.3316 13.9508 11.9614 13.83 11.5755 13.83C11.1895 13.83 10.8194 13.9508 10.5465 14.1658C10.2736 14.3807 10.1202 14.6723 10.1202 14.9763V17.2688C10.1202 17.5728 10.2736 17.8643 10.5465 18.0793C10.8194 18.2942 11.1895 18.415 11.5755 18.415ZM24.6726 4.66013H22.6644L20.1468 0.705601C20.0699 0.560089 19.9557 0.428639 19.8113 0.319465C19.667 0.21029 19.4956 0.125738 19.3079 0.0710909C19.1202 0.0164442 18.9202 -0.00712217 18.7204 0.00186458C18.5206 0.0108513 18.3253 0.0521982 18.1468 0.123321C17.9682 0.194444 17.8101 0.293814 17.6825 0.415222C17.5549 0.53663 17.4604 0.677466 17.405 0.828929C17.3496 0.980392 17.3345 1.13923 17.3605 1.29551C17.3866 1.45179 17.4533 1.60216 17.5565 1.73722L19.4046 4.66013H9.56726L11.4154 1.73722C11.5567 1.47004 11.5644 1.17066 11.437 0.899185C11.3096 0.627715 11.0565 0.404251 10.7286 0.273658C10.4007 0.143066 10.0222 0.115014 9.66914 0.195133C9.31606 0.275253 9.01453 0.457613 8.82509 0.705601L6.30753 4.66013H4.29931C3.27074 4.67245 2.28073 4.97047 1.50388 5.50162C0.727041 6.03277 0.213273 6.76293 0.0531932 7.56333C-0.106887 8.36373 0.0970038 9.18294 0.628906 9.87649C1.16081 10.57 1.98655 11.0934 2.9605 11.3542L4.03737 19.9051C4.14596 20.7563 4.65344 21.545 5.46069 22.1173C6.26795 22.6895 7.31703 23.0042 8.40307 23H20.5979C21.684 23.0042 22.733 22.6895 23.5403 22.1173C24.3476 21.545 24.855 20.7563 24.9636 19.9051L26.0405 11.3542C27.0166 11.0926 27.8436 10.5673 28.3751 9.87148C28.9067 9.17562 29.1084 8.35403 28.9445 7.55225C28.7807 6.75047 28.2619 6.02024 27.48 5.49089C26.6981 4.96154 25.7036 4.66725 24.6726 4.66013ZM22.0386 19.6759C22.0024 19.9596 21.8332 20.2225 21.5642 20.4132C21.2951 20.604 20.9454 20.7089 20.5834 20.7075H8.38852C8.0265 20.7089 7.67681 20.604 7.40773 20.4132C7.13864 20.2225 6.96948 19.9596 6.93328 19.6759L5.90007 11.5376H23.0718L22.0386 19.6759ZM24.6726 9.24508H4.29931C3.91336 9.24508 3.54322 9.12432 3.27031 8.90936C2.9974 8.6944 2.84408 8.40285 2.84408 8.09884C2.84408 7.79484 2.9974 7.50329 3.27031 7.28833C3.54322 7.07337 3.91336 6.95261 4.29931 6.95261H24.6726C25.0585 6.95261 25.4287 7.07337 25.7016 7.28833C25.9745 7.50329 26.1278 7.79484 26.1278 8.09884C26.1278 8.40285 25.9745 8.6944 25.7016 8.90936C25.4287 9.12432 25.0585 9.24508 24.6726 9.24508Z" fill="black"/>
</svg>
