<svg width="28" height="27" viewBox="0 0 28 27" fill="none" xmlns="http://www.w3.org/2000/svg">
<path d="M19.8081 0.0493195C17.6379 0.0513227 15.5573 0.95683 14.0237 2.56676C13.2663 1.75874 12.3639 1.11592 11.3684 0.6754C10.3729 0.234876 9.30405 0.00536131 8.22354 9.28116e-05C7.14303 -0.00517568 6.07221 0.213907 5.07285 0.644704C4.0735 1.0755 3.16538 1.70949 2.40088 2.51009C1.63638 3.3107 1.03064 4.26208 0.618575 5.30936C0.206515 6.35665 -0.00370217 7.4791 4.93395e-05 8.61199C0.00380085 9.74488 0.221447 10.8658 0.640433 11.91C1.05942 12.9543 1.67145 13.9012 2.44124 14.6963L14.0237 26.8401L25.6061 14.6963C26.7503 13.4952 27.529 11.9654 27.8438 10.3002C28.1586 8.63511 27.9953 6.90951 27.3747 5.34166C26.7541 3.77382 25.7039 2.43416 24.3571 1.49212C23.0102 0.550086 21.4271 0.0479836 19.8081 0.0493195ZM23.6689 12.6794L14.0237 22.7921L4.37846 12.6794C3.87145 12.1479 3.46927 11.5168 3.19488 10.8222C2.92049 10.1277 2.77926 9.38329 2.77926 8.63151C2.77926 7.87974 2.92049 7.13533 3.19488 6.44079C3.46927 5.74624 3.87145 5.11516 4.37846 4.58358C4.88547 4.052 5.48738 3.63032 6.14982 3.34263C6.81226 3.05494 7.52226 2.90687 8.23928 2.90687C8.9563 2.90687 9.6663 3.05494 10.3287 3.34263C10.9912 3.63032 11.5931 4.052 12.1001 4.58358L14.0237 6.6147L15.9473 4.59788C16.9876 3.55733 18.3703 2.9768 19.8081 2.9768C21.2459 2.9768 22.6285 3.55733 23.6689 4.59788C24.1763 5.12925 24.5788 5.76026 24.8534 6.45484C25.128 7.14941 25.2694 7.89393 25.2694 8.64582C25.2694 9.39771 25.128 10.1422 24.8534 10.8368C24.5788 11.5314 24.1763 12.1624 23.6689 12.6938V12.6794Z" fill="black"/>
</svg>
