<svg width="28" height="23" viewBox="0 0 28 23" fill="none" xmlns="http://www.w3.org/2000/svg">
<path d="M19.8081 0.0422633C17.6379 0.0439798 15.5573 0.819934 14.0237 2.19953C13.2663 1.50711 12.3639 0.956266 11.3684 0.578769C10.3729 0.201272 9.30405 0.00459425 8.22354 7.95328e-05C7.14303 -0.00443519 6.07221 0.183303 5.07285 0.552464C4.0735 0.921626 3.16538 1.46491 2.40088 2.15097C1.63638 2.83703 1.03064 3.65229 0.618575 4.54974C0.206515 5.44719 -0.00370217 6.40905 4.93395e-05 7.37985C0.00380085 8.35066 0.221447 9.31119 0.640433 10.206C1.05942 11.1009 1.67145 11.9124 2.44124 12.5936L14.0237 23L25.6061 12.5936C26.7503 11.5644 27.529 10.2534 27.8438 8.82655C28.1586 7.39967 27.9953 5.92095 27.3747 4.57742C26.7541 3.23389 25.7039 2.0859 24.3571 1.27864C23.0102 0.471384 21.4271 0.0411184 19.8081 0.0422633ZM23.6689 10.8654L14.0237 19.5312L4.37846 10.8654C3.87145 10.4098 3.46927 9.86905 3.19488 9.27388C2.92049 8.6787 2.77926 8.0408 2.77926 7.39658C2.77926 6.75237 2.92049 6.11446 3.19488 5.51929C3.46927 4.92411 3.87145 4.38332 4.37846 3.9278C4.88547 3.47227 5.48738 3.11092 6.14982 2.86439C6.81226 2.61786 7.52226 2.49098 8.23928 2.49098C8.9563 2.49098 9.6663 2.61786 10.3287 2.86439C10.9912 3.11092 11.5931 3.47227 12.1001 3.9278L14.0237 5.66832L15.9473 3.94005C16.9876 3.04837 18.3703 2.5509 19.8081 2.5509C21.2459 2.5509 22.6285 3.04837 23.6689 3.94005C24.1763 4.3954 24.5788 4.93613 24.8534 5.53133C25.128 6.12653 25.2694 6.76453 25.2694 7.40884C25.2694 8.05316 25.128 8.69115 24.8534 9.28635C24.5788 9.88155 24.1763 10.4223 23.6689 10.8776V10.8654Z" fill="black"/>
</svg>
